<?xml version="1.0" standalone="no"?>
<!DOCTYPE svg PUBLIC "-//W3C//DTD SVG 20010904//EN"
 "http://www.w3.org/TR/2001/REC-SVG-20010904/DTD/svg10.dtd">
<svg version="1.0" xmlns="http://www.w3.org/2000/svg"
 width="440.000000pt" height="735.000000pt" viewBox="0 0 440.000000 735.000000"
 preserveAspectRatio="xMidYMid meet">

<g transform="translate(0.000000,735.000000) scale(0.100000,-0.100000)"
fill="#000000" stroke="none">
<path d="M2127 7179 c-73 -17 -154 -70 -186 -123 -11 -17 -27 -62 -36 -101 -8
-38 -25 -94 -35 -123 -15 -39 -20 -78 -20 -150 0 -87 5 -115 49 -266 28 -93
59 -183 71 -198 27 -37 20 -78 -20 -112 -16 -13 -118 -67 -227 -121 -109 -53
-220 -114 -246 -134 -98 -73 -179 -208 -216 -361 -14 -56 -38 -114 -70 -170
-47 -81 -112 -236 -161 -383 -16 -51 -36 -85 -81 -135 -70 -80 -108 -154 -143
-282 -16 -58 -57 -157 -106 -255 -48 -96 -86 -187 -95 -229 -9 -37 -35 -107
-59 -155 -39 -78 -44 -96 -51 -186 -4 -55 -6 -138 -4 -185 1 -47 3 -100 3
-117 -1 -35 10 -40 37 -20 25 19 41 55 37 85 -2 19 2 28 14 30 13 2 18 -3 18
-17 0 -24 9 -26 32 -8 10 8 20 45 28 105 l13 93 25 -46 c26 -46 46 -54 65 -24
7 11 1 33 -22 80 -17 35 -31 74 -31 87 0 13 20 62 45 110 29 55 45 99 45 121
0 91 10 105 219 311 171 168 202 204 228 260 121 256 167 340 235 425 40 50
80 101 89 115 l17 25 5 -25 c9 -38 56 -396 63 -475 7 -80 -8 -218 -37 -343
-29 -126 -34 -193 -19 -287 13 -82 13 -84 -24 -231 -63 -258 -77 -362 -86
-664 -6 -181 -6 -306 1 -365 6 -49 16 -144 24 -210 7 -66 21 -151 30 -190 13
-57 15 -98 9 -220 -7 -172 4 -293 42 -435 14 -52 39 -147 55 -210 29 -107 30
-123 24 -230 -15 -274 -33 -318 -202 -495 -202 -212 -206 -217 -197 -264 4
-18 13 -35 20 -38 8 -3 14 -11 14 -18 0 -15 27 -28 41 -19 6 3 16 0 24 -6 9
-7 28 -10 45 -6 22 4 30 2 30 -9 0 -18 41 -29 77 -20 37 9 60 31 73 69 6 20
21 36 40 45 63 27 96 71 123 161 l26 86 59 12 c33 7 67 21 76 31 29 32 31 82
6 132 -15 29 -24 65 -25 104 -1 33 -6 105 -10 160 -10 126 6 293 45 485 55
269 58 429 14 650 l-16 77 36 104 c49 145 101 364 126 532 21 136 47 277 54
284 1 2 22 -70 45 -160 120 -453 156 -582 196 -690 24 -64 51 -143 60 -175 9
-31 27 -82 40 -112 18 -42 27 -95 39 -222 12 -126 23 -185 42 -235 54 -146 65
-181 84 -273 30 -149 36 -328 16 -446 -17 -97 -68 -254 -125 -384 -16 -36 -32
-76 -36 -90 -4 -14 -13 -32 -20 -40 -7 -8 -30 -50 -50 -93 -45 -97 -46 -146
-2 -161 41 -15 79 9 91 57 5 20 13 37 17 37 4 0 3 -16 -2 -36 -19 -66 45 -92
66 -27 14 42 27 55 15 14 -6 -23 -5 -35 6 -46 9 -8 19 -15 23 -15 14 0 31 24
31 43 0 17 2 17 19 -4 18 -21 21 -22 35 -9 8 8 17 28 20 44 7 37 16 46 16 14
0 -31 6 -37 31 -31 10 3 22 17 25 32 4 14 12 33 19 41 28 33 46 83 51 142 4
35 16 84 27 111 16 39 18 59 13 115 -4 37 -7 92 -6 122 0 30 -6 96 -15 145
-26 147 -5 339 66 612 37 141 41 170 41 273 0 127 -19 233 -60 350 -27 74 -27
77 -24 311 2 129 -2 297 -8 373 -12 159 -69 573 -98 721 -11 55 -23 136 -27
180 -4 44 -17 127 -30 185 -21 91 -24 133 -26 320 -1 242 -7 212 94 487 37 98
81 231 98 296 l32 118 71 -133 c77 -145 94 -171 162 -250 57 -66 96 -143 118
-233 10 -38 38 -110 64 -160 41 -80 62 -106 192 -235 162 -161 230 -252 230
-308 0 -20 -18 -73 -42 -126 -44 -94 -48 -118 -38 -241 2 -27 0 -94 -4 -149
-7 -80 -6 -100 5 -107 49 -31 79 12 89 125 13 133 40 158 99 91 36 -41 37 -57
21 -227 -11 -117 -4 -158 29 -158 15 0 22 13 35 65 9 35 17 79 17 97 l1 33 8
-30 c4 -16 8 -49 9 -73 1 -52 16 -82 39 -82 15 0 21 19 36 123 10 67 18 176
19 242 2 115 0 125 -35 225 -50 144 -93 259 -133 360 -18 47 -45 130 -60 185
-46 168 -102 320 -182 489 -121 258 -197 404 -262 505 -48 75 -63 108 -76 170
-36 170 -91 278 -194 382 -62 61 -83 75 -323 193 -162 80 -274 142 -302 167
-59 52 -99 133 -99 203 0 81 21 154 50 173 13 9 35 36 50 60 21 36 25 53 21
94 -3 27 -12 57 -22 67 -11 13 -16 37 -16 78 0 104 -47 230 -109 291 -72 73
-213 108 -324 82z"/>
</g>
</svg>
